<svg width="43" height="44" viewBox="0 0 43 44" fill="none" xmlns="http://www.w3.org/2000/svg">
<rect y="0.5" width="43" height="43" rx="6" fill="#E1EEFF"/>
<path d="M10 17.4474C10 15.2636 10 14.1728 10.6785 13.4943C11.3571 12.8158 12.4478 12.8158 14.6316 12.8158H28.5263C30.7101 12.8158 31.8008 12.8158 32.4794 13.4943C33.1579 14.1728 33.1579 15.2636 33.1579 17.4474C33.1579 17.9927 33.1579 18.266 32.9888 18.4362C32.8186 18.6053 32.5442 18.6053 32 18.6053H11.1579C10.6125 18.6053 10.3393 18.6053 10.1691 18.4362C10 18.266 10 17.9916 10 17.4474ZM10 27.8684C10 30.0522 10 31.143 10.6785 31.8215C11.3571 32.5 12.4478 32.5 14.6316 32.5H28.5263C30.7101 32.5 31.8008 32.5 32.4794 31.8215C33.1579 31.143 33.1579 30.0522 33.1579 27.8684V22.079C33.1579 21.5336 33.1579 21.2603 32.9888 21.0901C32.8186 20.9211 32.5442 20.9211 32 20.9211H11.1579C10.6125 20.9211 10.3393 20.9211 10.1691 21.0901C10 21.2603 10 21.5347 10 22.079V27.8684Z" fill="#0063E6"/>
<path d="M15.7891 10.5V13.9737M27.368 10.5V13.9737" stroke="#0063E6" stroke-width="2" stroke-linecap="round"/>
</svg>
