<svg width="105" height="17" viewBox="0 0 105 17" fill="none" xmlns="http://www.w3.org/2000/svg">
<g clip-path="url(#clip0_1402_394)">
<path d="M22 0.5H2C0.89543 0.5 0 1.39543 0 2.5V14.5C0 15.6046 0.89543 16.5 2 16.5H22C23.1046 16.5 24 15.6046 24 14.5V2.5C24 1.39543 23.1046 0.5 22 0.5Z" fill="#252525"/>
<path d="M9 13.5C11.7614 13.5 14 11.2614 14 8.5C14 5.73858 11.7614 3.5 9 3.5C6.23858 3.5 4 5.73858 4 8.5C4 11.2614 6.23858 13.5 9 13.5Z" fill="#EB001B"/>
<path d="M15 13.5C17.7614 13.5 20 11.2614 20 8.5C20 5.73858 17.7614 3.5 15 3.5C12.2386 3.5 10 5.73858 10 8.5C10 11.2614 12.2386 13.5 15 13.5Z" fill="#F79E1B"/>
<path fill-rule="evenodd" clip-rule="evenodd" d="M12 4.49963C13.2144 5.41184 14 6.86418 14 8.5C14 10.1358 13.2144 11.5882 12 12.5004C10.7856 11.5882 10 10.1358 10 8.5C10 6.86418 10.7856 5.41184 12 4.49963Z" fill="#FF5F00"/>
</g>
<g clip-path="url(#clip1_1402_394)">
<path d="M48.75 0.75H29.25C28.1454 0.75 27.25 1.64543 27.25 2.75V14.25C27.25 15.3546 28.1454 16.25 29.25 16.25H48.75C49.8546 16.25 50.75 15.3546 50.75 14.25V2.75C50.75 1.64543 49.8546 0.75 48.75 0.75Z" fill="white" stroke="black" stroke-opacity="0.2" stroke-width="0.5"/>
<path d="M29.7877 6.41444C29.2646 6.12751 28.6675 5.89674 28 5.73659L28.028 5.61188H30.765C31.136 5.62489 31.437 5.73651 31.5349 6.13071L32.1298 8.96659L32.312 9.82073L33.978 5.61188H35.7768L33.1029 11.7775H31.304L29.7877 6.41444ZM37.1 11.7841H35.3988L36.4628 5.61188H38.1639L37.1 11.7841ZM43.2668 5.76277L43.0354 7.09559L42.8816 7.03004C42.5737 6.90525 42.1674 6.78054 41.6144 6.79371C40.9427 6.79371 40.6415 7.06277 40.6345 7.32546C40.6345 7.61441 40.9989 7.80484 41.5939 8.08725C42.574 8.52719 43.0286 9.06557 43.0218 9.76819C43.0081 11.0486 41.846 11.8761 40.0611 11.8761C39.2979 11.8694 38.5628 11.7181 38.1638 11.5476L38.4019 10.162L38.6259 10.2607C39.1789 10.4907 39.5428 10.589 40.222 10.589C40.7118 10.589 41.2369 10.3984 41.2436 9.98488C41.2436 9.71565 41.0199 9.51851 40.3617 9.21646C39.7178 8.92087 38.8568 8.42848 38.8708 7.54198C38.8781 6.34042 40.0611 5.5 41.741 5.5C42.399 5.5 42.9312 5.63789 43.2668 5.76277ZM45.5278 9.59749H46.9417C46.8718 9.28889 46.5496 7.81147 46.5496 7.81147L46.4307 7.27964C46.3467 7.50943 46.1999 7.88373 46.2069 7.87056C46.2069 7.87056 45.6678 9.2429 45.5278 9.59749ZM47.6276 5.61188L49 11.784H47.4249C47.4249 11.784 47.2708 11.0748 47.2219 10.8581H45.0378C44.9746 11.0222 44.6808 11.784 44.6808 11.784H42.8958L45.4226 6.12399C45.5977 5.72342 45.906 5.61188 46.3118 5.61188H47.6276Z" fill="#1434CB"/>
</g>
<g clip-path="url(#clip2_1402_394)">
<path d="M76 0.5H56C54.8954 0.5 54 1.39543 54 2.5V14.5C54 15.6046 54.8954 16.5 56 16.5H76C77.1046 16.5 78 15.6046 78 14.5V2.5C78 1.39543 77.1046 0.5 76 0.5Z" fill="#016FD0"/>
<path fill-rule="evenodd" clip-rule="evenodd" d="M67.7637 13.8938V8.19244L77.9112 8.20155V9.77644L76.7383 11.0298L77.9112 12.2947V13.903H76.0386L75.0434 12.8049L74.0553 13.9072L67.7637 13.8938Z" fill="#FFFFFE"/>
<path fill-rule="evenodd" clip-rule="evenodd" d="M68.4414 13.2688V8.81989H72.2137V9.84477H69.6628V10.5405H72.1529V11.5483H69.6628V12.2316H72.2137V13.2688H68.4414Z" fill="#016FD0"/>
<path fill-rule="evenodd" clip-rule="evenodd" d="M72.1954 13.2688L74.2827 11.0418L72.1953 8.82001H73.811L75.0865 10.23L76.3656 8.82001H77.9117V8.85501L75.8689 11.0418L77.9117 13.2057V13.2688H76.35L75.0519 11.8446L73.7671 13.2688H72.1954Z" fill="#016FD0"/>
<path fill-rule="evenodd" clip-rule="evenodd" d="M68.2369 3.13196H70.6829L71.5421 5.08281V3.13196H74.5619L75.0827 4.59353L75.6052 3.13196H77.9111V8.83335H65.7246L68.2369 3.13196Z" fill="#FFFFFE"/>
<path fill-rule="evenodd" clip-rule="evenodd" d="M68.7006 3.7514L66.7266 8.19658H68.0805L68.4529 7.30641H70.4708L70.843 8.19658H72.2306L70.2648 3.7514H68.7006ZM68.8702 6.30884L69.4622 4.89377L70.0538 6.30884H68.8702Z" fill="#016FD0"/>
<path fill-rule="evenodd" clip-rule="evenodd" d="M72.2119 8.19575V3.75067L74.115 3.75721L75.0943 6.48994L76.0799 3.75067H77.9115V8.19575L76.7329 8.20619V5.15284L75.6204 8.19575H74.5446L73.4089 5.14241V8.19575H72.2119Z" fill="#016FD0"/>
</g>
<g clip-path="url(#clip3_1402_394)">
<path d="M102.997 16.2499L102.999 16.2499C103.954 16.2581 104.738 15.4773 104.75 14.5042L104.75 2.5063C104.746 2.03569 104.559 1.58617 104.23 1.2568C103.901 0.928269 103.459 0.746149 102.997 0.750071L83.0006 0.750062C82.5411 0.746149 82.0986 0.928269 81.7703 1.2568C81.4411 1.58617 81.2538 2.03569 81.25 2.50426L81.25 14.4937C81.2538 14.9643 81.4411 15.4138 81.7703 15.7432C82.0986 16.0717 82.5411 16.2538 83.0028 16.2499H102.997ZM102.996 16.7499C102.996 16.7499 102.995 16.7499 102.995 16.7499L102.997 16.7499H102.996Z" fill="white" stroke="black" stroke-opacity="0.2" stroke-width="0.5"/>
<path d="M93.6123 16.4999H102.997C103.524 16.5043 104.031 16.2993 104.406 15.9299C104.782 15.5605 104.996 15.057 105 14.5303V12.1716C101.456 14.2059 97.6127 15.6668 93.6123 16.4999Z" fill="#F27712"/>
<path d="M104.172 9.79649H103.32L102.36 8.53029H102.269V9.79649H101.573V6.65167H102.6C103.402 6.65167 103.866 6.9827 103.866 7.57856C103.866 8.06684 103.576 8.38132 103.055 8.48063L104.172 9.79649ZM103.146 7.60339C103.146 7.29718 102.914 7.13994 102.484 7.13994H102.269V8.09167H102.467C102.914 8.09167 103.146 7.92615 103.146 7.60339ZM99.1403 6.65167H101.11V7.18132H99.8354V7.88477H101.06V8.4227H99.8354V9.27512H101.11V9.80477H99.1403V6.65167ZM96.9058 9.87925L95.3996 6.64339H96.1609L97.1127 8.76201L98.0727 6.64339H98.8175L97.2947 9.87925H96.9223H96.9058ZM90.6078 9.87098C89.5485 9.87098 88.7209 9.15098 88.7209 8.21581C88.7209 7.30546 89.5651 6.56891 90.6244 6.56891C90.9223 6.56891 91.1706 6.62684 91.4768 6.75925V7.48753C91.2449 7.25971 90.9329 7.13194 90.6078 7.13167C89.9458 7.13167 89.4409 7.61167 89.4409 8.21581C89.4409 8.85305 89.9375 9.30822 90.6409 9.30822C90.9554 9.30822 91.1954 9.20891 91.4768 8.96063V9.68891C91.1623 9.82132 90.8975 9.87098 90.6078 9.87098ZM88.5058 8.83649C88.5058 9.44891 88.0009 9.87098 87.2727 9.87098C86.743 9.87098 86.3623 9.68891 86.0396 9.27512L86.4947 8.88615C86.652 9.16753 86.9168 9.30822 87.2478 9.30822C87.5623 9.30822 87.7858 9.11787 87.7858 8.8696C87.7858 8.72891 87.7196 8.62132 87.5789 8.53856C87.4246 8.46371 87.264 8.40277 87.0989 8.35649C86.4451 8.1496 86.2216 7.92615 86.2216 7.48753C86.2216 6.97443 86.7016 6.58546 87.3306 6.58546C87.7278 6.58546 88.0837 6.7096 88.3816 6.94132L88.0175 7.35512C87.8732 7.1969 87.6689 7.10677 87.4547 7.10684C87.1568 7.10684 86.9416 7.25581 86.9416 7.45443C86.9416 7.61994 87.0658 7.71098 87.4796 7.85167C88.274 8.09994 88.5058 8.33167 88.5058 8.84477V8.83649ZM85.0878 6.65167H85.783V9.80477H85.0878V6.65167ZM82.8534 9.80477H81.8271V6.65167H82.8534C83.9789 6.65167 84.7568 7.29718 84.7568 8.22408C84.7568 8.69581 84.5251 9.1427 84.1196 9.44063C83.772 9.68891 83.383 9.80477 82.8451 9.80477H82.8534ZM83.6644 7.43787C83.4327 7.25581 83.1678 7.1896 82.7127 7.1896H82.5223V9.27512H82.7127C83.1596 9.27512 83.4409 9.19236 83.6644 9.02684C83.9044 8.82822 84.0451 8.53029 84.0451 8.22408C84.0451 7.91787 83.9044 7.62822 83.6644 7.43787Z" fill="black"/>
<path d="M93.414 6.56891C92.5036 6.56891 91.7588 7.29718 91.7588 8.19925C91.7588 9.15925 92.4705 9.87925 93.414 9.87925C94.3409 9.87925 95.0691 9.15098 95.0691 8.22408C95.0691 7.29718 94.3491 6.56891 93.414 6.56891Z" fill="#F27712"/>
</g>
<defs>
<clipPath id="clip0_1402_394">
<rect width="24" height="16" fill="white" transform="translate(0 0.5)"/>
</clipPath>
<clipPath id="clip1_1402_394">
<rect width="24" height="16" fill="white" transform="translate(27 0.5)"/>
</clipPath>
<clipPath id="clip2_1402_394">
<rect width="24" height="16" fill="white" transform="translate(54 0.5)"/>
</clipPath>
<clipPath id="clip3_1402_394">
<rect width="24" height="16" fill="white" transform="translate(81 0.5)"/>
</clipPath>
</defs>
</svg>
