<svg width="60" height="60" viewBox="0 0 60 60" fill="none" xmlns="http://www.w3.org/2000/svg">
<rect width="60" height="60" rx="30" fill="#E0EEFF"/>
<path d="M35.8 38.0667V41H15.5V38.0667C15.5 38.0667 15.5 32.2 25.65 32.2C35.8 32.2 35.8 38.0667 35.8 38.0667ZM30.725 24.1334C30.725 23.1181 30.4274 22.1256 29.8697 21.2815C29.3121 20.4373 28.5195 19.7793 27.5921 19.3908C26.6648 19.0023 25.6444 18.9006 24.6599 19.0987C23.6755 19.2968 22.7712 19.7857 22.0614 20.5036C21.3517 21.2215 20.8683 22.1361 20.6725 23.1319C20.4767 24.1277 20.5772 25.1598 20.9613 26.0978C21.3454 27.0358 21.9959 27.8375 22.8305 28.4016C23.6651 28.9656 24.6463 29.2667 25.65 29.2667C26.996 29.2667 28.2868 28.7259 29.2386 27.7632C30.1903 26.8005 30.725 25.4948 30.725 24.1334ZM35.713 32.2C36.6044 32.8978 37.3338 33.7847 37.8498 34.7982C38.3659 35.8118 38.6561 36.9275 38.7 38.0667V41H44.5V38.0667C44.5 38.0667 44.5 32.7427 35.713 32.2ZM34.35 19.0001C33.3521 18.9954 32.3762 19.2971 31.5515 19.8654C32.4323 21.1102 32.9059 22.6026 32.9059 24.1334C32.9059 25.6642 32.4323 27.1566 31.5515 28.4014C32.3762 28.9697 33.3521 29.2714 34.35 29.2667C35.696 29.2667 36.9868 28.7259 37.9386 27.7632C38.8903 26.8005 39.425 25.4948 39.425 24.1334C39.425 22.7719 38.8903 21.4663 37.9386 20.5036C36.9868 19.5409 35.696 19.0001 34.35 19.0001Z" fill="#0063E5"/>
</svg>
