<svg width="60" height="60" viewBox="0 0 60 60" fill="none" xmlns="http://www.w3.org/2000/svg">
<rect width="60" height="60" rx="30" fill="#E0EEFF"/>
<mask id="mask0_135_3761" style="mask-type:luminance" maskUnits="userSpaceOnUse" x="14" y="18" width="32" height="24">
<path d="M33.0002 18H27.0002C21.3437 18 18.5147 18 16.7582 19.758C15.4922 21.0225 15.1382 22.8435 15.0392 25.875H44.9612C44.8622 22.8435 44.5082 21.0225 43.2422 19.758C41.4857 18 38.6567 18 33.0002 18ZM27.0002 42H33.0002C38.6567 42 41.4857 42 43.2422 40.242C44.9987 38.484 45.0002 35.6565 45.0002 30C45.0002 29.338 44.9992 28.713 44.9972 28.125H15.0032C15.0002 28.713 14.9992 29.338 15.0002 30C15.0002 35.6565 15.0002 38.4855 16.7582 40.242C18.5162 41.9985 21.3437 42 27.0002 42Z" fill="white"/>
<path fill-rule="evenodd" clip-rule="evenodd" d="M19.8752 36C19.8752 35.7016 19.9937 35.4155 20.2047 35.2045C20.4157 34.9935 20.7018 34.875 21.0002 34.875H27.0002C27.2986 34.875 27.5847 34.9935 27.7957 35.2045C28.0067 35.4155 28.1252 35.7016 28.1252 36C28.1252 36.2984 28.0067 36.5845 27.7957 36.7955C27.5847 37.0065 27.2986 37.125 27.0002 37.125H21.0002C20.7018 37.125 20.4157 37.0065 20.2047 36.7955C19.9937 36.5845 19.8752 36.2984 19.8752 36ZM29.6252 36C29.6252 35.7016 29.7437 35.4155 29.9547 35.2045C30.1657 34.9935 30.4518 34.875 30.7502 34.875H33.0002C33.2986 34.875 33.5847 34.9935 33.7957 35.2045C34.0067 35.4155 34.1252 35.7016 34.1252 36C34.1252 36.2984 34.0067 36.5845 33.7957 36.7955C33.5847 37.0065 33.2986 37.125 33.0002 37.125H30.7502C30.4518 37.125 30.1657 37.0065 29.9547 36.7955C29.7437 36.5845 29.6252 36.2984 29.6252 36Z" fill="black"/>
</mask>
<g mask="url(#mask0_135_3761)">
<path d="M12.0002 12H48.0002V48H12.0002V12Z" fill="#0063E5"/>
</g>
</svg>
