<svg width="60" height="60" viewBox="0 0 60 60" fill="none" xmlns="http://www.w3.org/2000/svg">
<rect width="60" height="60" rx="30" fill="#E0EEFF"/>
<path d="M19.9273 18H13.9896C13.4453 18 13 18.45 13 19V41C13 41.55 13.4453 42 13.9896 42H19.9273C20.4716 42 20.9169 41.55 20.9169 41V19C20.9169 18.45 20.4716 18 19.9273 18ZM18.9377 24H14.9792V22H18.9377V24ZM29.8235 18H23.8858C23.3415 18 22.8962 18.45 22.8962 19V41C22.8962 41.55 23.3415 42 23.8858 42H29.8235C30.3678 42 30.8131 41.55 30.8131 41V19C30.8131 18.45 30.3678 18 29.8235 18ZM28.8339 24H24.8754V22H28.8339V24Z" fill="#0063E5"/>
<path d="M36.6601 19.5461L31.3578 22.2461C31.1235 22.3652 30.9456 22.5735 30.8632 22.8252C30.7808 23.0768 30.8006 23.3512 30.9184 23.5881L39.8249 41.4481C39.9429 41.6848 40.149 41.8646 40.398 41.9478C40.647 42.0311 40.9186 42.011 41.153 41.8921L46.4553 39.1921C46.6896 39.0729 46.8675 38.8646 46.9499 38.613C47.0323 38.3613 47.0125 38.0869 46.8947 37.8501L37.9882 19.9901C37.8702 19.7533 37.6641 19.5736 37.4151 19.4903C37.1661 19.4071 36.8945 19.4271 36.6601 19.5461Z" fill="#0063E5"/>
<path d="M41.6989 41C41.6989 41.2652 41.5946 41.5196 41.409 41.7071C41.2234 41.8946 40.9717 42 40.7093 42C40.4468 42 40.1951 41.8946 40.0095 41.7071C39.8239 41.5196 39.7197 41.2652 39.7197 41C39.7197 40.7348 39.8239 40.4804 40.0095 40.2929C40.1951 40.1054 40.4468 40 40.7093 40C40.9717 40 41.2234 40.1054 41.409 40.2929C41.5946 40.4804 41.6989 40.7348 41.6989 41Z" fill="#0063E5"/>
</svg>
